<svg xmlns="http://www.w3.org/2000/svg" viewBox="0 0 720 720" role="img" aria-labelledby="title desc">
  <title>Cadrage de projet</title>
  <desc>Illustration d'un cadrage de projet avec planning, priorites et accompagnement humain.</desc>
  <defs>
    <linearGradient id="panel" x1="102" y1="84" x2="622" y2="638" gradientUnits="userSpaceOnUse">
      <stop stop-color="#f8fbff"/>
      <stop offset="1" stop-color="#dbeafe"/>
    </linearGradient>
    <linearGradient id="accent" x1="180" y1="156" x2="542" y2="568" gradientUnits="userSpaceOnUse">
      <stop stop-color="#0f8bff"/>
      <stop offset="1" stop-color="#89c540"/>
    </linearGradient>
  </defs>
  <rect x="102" y="84" width="516" height="552" rx="42" fill="url(#panel)" stroke="#b8c7dd" stroke-width="6"/>
  <rect x="174" y="148" width="372" height="314" rx="30" fill="#fff" stroke="#c6d4e6" stroke-width="6"/>
  <rect x="174" y="148" width="372" height="78" rx="30" fill="#eef5ff" stroke="#c6d4e6" stroke-width="6"/>
  <path d="M232 188h72M356 188h132M222 282h276M222 342h220M222 402h164" fill="none" stroke="#1f3b57" stroke-linecap="round" stroke-width="12"/>
  <path d="M222 282h276M222 342h220M222 402h164" fill="none" stroke="#7aa4d6" stroke-linecap="round" stroke-width="22" opacity=".12"/>
  <circle cx="222" cy="282" r="16" fill="#0f8bff"/>
  <circle cx="222" cy="342" r="16" fill="#10b981"/>
  <circle cx="222" cy="402" r="16" fill="#89c540"/>
  <rect x="252" y="516" width="216" height="62" rx="24" fill="#fff" stroke="#c6d4e6" stroke-width="6"/>
  <path d="M302 548h116" fill="none" stroke="url(#accent)" stroke-linecap="round" stroke-width="14"/>
  <path d="M546 474l-68 68M546 542l-68-68" fill="none" stroke="#7aa4d6" stroke-linecap="round" stroke-width="12" opacity=".72"/>
  <path d="M128 592h64M526 124h68M128 236h52" fill="none" stroke="#7aa4d6" stroke-linecap="round" stroke-width="12" opacity=".75"/>
</svg>
