<svg xmlns="http://www.w3.org/2000/svg" viewBox="0 0 720 720" role="img" aria-labelledby="title desc">
  <title>Drupal AI performance illustration</title>
  <desc>Lightweight abstract illustration for the home hero.</desc>
  <defs>
    <linearGradient id="panel" x1="110" y1="84" x2="610" y2="642" gradientUnits="userSpaceOnUse">
      <stop stop-color="#f8fbff"/>
      <stop offset="1" stop-color="#dbeafe"/>
    </linearGradient>
    <linearGradient id="accent" x1="196" y1="168" x2="538" y2="564" gradientUnits="userSpaceOnUse">
      <stop stop-color="#0f8bff"/>
      <stop offset="1" stop-color="#10b981"/>
    </linearGradient>
  </defs>
  <rect x="110" y="84" width="500" height="552" rx="42" fill="url(#panel)" stroke="#b8c7dd" stroke-width="6"/>
  <path d="M218 416c0-78 63-141 141-141s141 63 141 141-63 141-141 141-141-63-141-141Z" fill="#fff" stroke="#c6d4e6" stroke-width="6"/>
  <path d="M360 158c58 0 105 47 105 105 0 29-12 55-31 74l-74 74-74-74a105 105 0 0 1 74-179Z" fill="url(#accent)"/>
  <path d="M319 264c0-23 18-41 41-41s41 18 41 41-18 41-41 41-41-18-41-41Z" fill="#fff" opacity=".94"/>
  <path d="M252 418h216M287 474h146M321 530h78" fill="none" stroke="#1f3b57" stroke-linecap="round" stroke-width="16"/>
  <path d="M173 216h86M461 216h86M170 584h122M428 584h122" fill="none" stroke="#7aa4d6" stroke-linecap="round" stroke-width="12" opacity=".75"/>
  <circle cx="164" cy="216" r="18" fill="#0f8bff"/>
  <circle cx="556" cy="216" r="18" fill="#10b981"/>
  <circle cx="164" cy="584" r="18" fill="#10b981"/>
  <circle cx="556" cy="584" r="18" fill="#0f8bff"/>
</svg>
