<svg xmlns="http://www.w3.org/2000/svg" viewBox="0 0 720 720" role="img" aria-labelledby="title desc">
  <title>Architecture de services web</title>
  <desc>Illustration sobre d'une architecture de services organisee en composants et parcours.</desc>
  <defs>
    <linearGradient id="panel" x1="98" y1="78" x2="628" y2="640" gradientUnits="userSpaceOnUse">
      <stop stop-color="#f8fbff"/>
      <stop offset="1" stop-color="#dbeafe"/>
    </linearGradient>
    <linearGradient id="accent" x1="168" y1="160" x2="548" y2="570" gradientUnits="userSpaceOnUse">
      <stop stop-color="#0f8bff"/>
      <stop offset="1" stop-color="#89c540"/>
    </linearGradient>
  </defs>
  <rect x="96" y="78" width="528" height="564" rx="42" fill="url(#panel)" stroke="#b8c7dd" stroke-width="6"/>
  <rect x="162" y="140" width="396" height="110" rx="24" fill="#fff" stroke="#c6d4e6" stroke-width="6"/>
  <path d="M210 196h108M348 196h162" fill="none" stroke="#1f3b57" stroke-linecap="round" stroke-width="14"/>
  <rect x="162" y="322" width="150" height="142" rx="24" fill="#fff" stroke="#c6d4e6" stroke-width="6"/>
  <rect x="356" y="322" width="202" height="142" rx="24" fill="#fff" stroke="#c6d4e6" stroke-width="6"/>
  <rect x="162" y="526" width="396" height="58" rx="20" fill="#fff" stroke="#c6d4e6" stroke-width="6"/>
  <path d="M360 250v72M237 464v62M458 464v62M312 393h44" fill="none" stroke="#7aa4d6" stroke-linecap="round" stroke-width="12"/>
  <path d="M207 370h62M207 418h42M407 370h102M407 418h78M220 556h280" fill="none" stroke="#1f3b57" stroke-linecap="round" stroke-width="12"/>
  <circle cx="360" cy="250" r="22" fill="url(#accent)"/>
  <circle cx="237" cy="464" r="18" fill="#10b981"/>
  <circle cx="458" cy="464" r="18" fill="#0f8bff"/>
  <path d="M134 606h68M518 118h68M114 242h54M562 604h48" fill="none" stroke="#7aa4d6" stroke-linecap="round" stroke-width="12" opacity=".75"/>
</svg>
